<!DOCTYPE svg PUBLIC "-//W3C//DTD SVG 1.1//EN" "http://www.w3.org/Graphics/SVG/1.1/DTD/svg11.dtd">

<!-- Uploaded to: SVG Repo, www.svgrepo.com, Transformed by: SVG Repo Mixer Tools -->
<svg fill="#f51497" version="1.1" id="Capa_1" xmlns="http://www.w3.org/2000/svg" xmlns:xlink="http://www.w3.org/1999/xlink" width="800px" height="800px" viewBox="0 0 405.986 405.986" xml:space="preserve" stroke="#f51497">

<g id="SVGRepo_bgCarrier" stroke-width="0"/>

<g id="SVGRepo_tracerCarrier" stroke-linecap="round" stroke-linejoin="round"/>

<g id="SVGRepo_iconCarrier"> <g> <g> <path d="M186.836,234.861c42.377,18.336,70.009-41.008,70.009-79.686c0-37.342-28.713-59.235-66.032-42.779 c3.116-5.205,8.046-12.653,14.276-19.798h0.007c5.275-6.065,15.605-13.851,15.605-13.851c1.553-1.174,1.386-2.808-0.379-3.631 l-12.488-5.834c-1.764-0.827-4.165-0.224-5.334,1.332c0,0-9.235,13.249-20.104,41.448c-33.604-15.201-65.55,6.091-65.55,43.114 C116.847,193.854,146.598,252.596,186.836,234.861z"/> <path d="M183.288,99.873c1.942-0.163,3.657-1.883,3.815-3.823c0,0,1.246-15.122-9.292-25.672 c-10.573-10.553-25.667-9.296-25.667-9.296c-1.943,0.163-3.656,1.882-3.817,3.822c0,0-1.271,15.13,9.283,25.684 C168.159,101.13,183.288,99.873,183.288,99.873z"/> <path d="M402.341,249.297c-27.2-5.271-53.046-8.969-79.012-11.307c-5.163-0.465-10.392-0.699-15.542-0.699 c-33.736,0-61.283,9.725-87.926,19.129c-7.507,2.65-18.473,5.301-30.083,8.107c-16.946,4.096-34.469,8.33-42.732,12.997 c-7.484,4.228-10.303,9.39-8.376,15.345c2.81,8.687,14.416,12.56,37.631,12.56c15.517,0,34.684-1.724,54.975-3.548 c3.261-0.293,6.576-0.59,9.918-0.885c-27.75,7.471-51.425,11.254-70.485,11.254c-21.89,0-36.169-5.086-40.207-14.323 c-2.852-6.524-0.151-14.735,7.606-23.117l1.151-1.244l-1.645-0.405c-0.853-0.211-85.483-21.107-101.709-24.666 c-3.578-0.785-7.212-1.184-10.801-1.184c-12.894,0-23.373,5.123-24.916,12.18c-0.746,3.41,0.105,10.096,14.211,16.575 l123.708,52.101c4.13,1.525,8.372,3.291,12.863,5.16c13.735,5.715,27.938,11.627,41.135,11.625c5.491,0,10.746-0.572,16.064-1.748 c9.577-2.119,33.763-9.283,59.367-16.867c24.925-7.383,50.7-15.018,61.012-17.338c8.093-1.821,16.434-2.707,25.499-2.707 c15.629,0,30.966,2.627,46.61,5.556l5.328,0.997V250L402.341,249.297z"/> </g> </g> </g>

</svg>